<svg width="1200" height="630" viewBox="0 0 1200 630" xmlns="http://www.w3.org/2000/svg">
  <defs>
    <style>
      @import url('https://fonts.googleapis.com/css2?family=Press+Start+2P&amp;display=swap');
      .pixel-font { font-family: 'Press Start 2P', monospace; }
    </style>
    <linearGradient id="bgGradient" x1="0%" y1="0%" x2="100%" y2="100%">
      <stop offset="0%" style="stop-color:#0a0a0f"/>
      <stop offset="100%" style="stop-color:#1a1a2e"/>
    </linearGradient>
    <filter id="glow" x="-50%" y="-50%" width="200%" height="200%">
      <feGaussianBlur stdDeviation="4" result="coloredBlur"/>
      <feMerge>
        <feMergeNode in="coloredBlur"/>
        <feMergeNode in="SourceGraphic"/>
      </feMerge>
    </filter>
  </defs>
  
  <!-- Background -->
  <rect width="1200" height="630" fill="url(#bgGradient)"/>
  
  <!-- Scanlines effect -->
  <g opacity="0.03">
    <pattern id="scanlines" patternUnits="userSpaceOnUse" width="4" height="4">
      <rect width="4" height="2" fill="white"/>
    </pattern>
    <rect width="1200" height="630" fill="url(#scanlines)"/>
  </g>
  
  <!-- Corner decorations -->
  <g stroke="#ff2d95" stroke-width="3" fill="none">
    <path d="M20,60 L20,20 L60,20"/>
    <path d="M1140,20 L1180,20 L1180,60"/>
    <path d="M1180,570 L1180,610 L1140,610"/>
    <path d="M60,610 L20,610 L20,570"/>
  </g>
  
  <!-- SOLACE. Logo -->
  <text x="600" y="140" text-anchor="middle" class="pixel-font" font-size="48" fill="#00C895" filter="url(#glow)">SOLACE.</text>
  
  <!-- PUB/SUB -->
  <text x="600" y="260" text-anchor="middle" class="pixel-font" font-size="72" fill="#ff2d95" filter="url(#glow)">PUB/SUB</text>
  
  <!-- AND CHILL -->
  <text x="600" y="360" text-anchor="middle" class="pixel-font" font-size="72" fill="#00f5ff" filter="url(#glow)">AND CHILL</text>
  
  <!-- Solace Trivia Arcade -->
  <text x="600" y="440" text-anchor="middle" class="pixel-font" font-size="28" fill="#ffd93d">SOLACE TRIVIA ARCADE</text>
  
  <!-- Pixelated Solly (scaled up from 48x48 to fit nicely) -->
  <g transform="translate(80, 380) scale(4)">
    <!-- Left paw raised up -->
    <rect x="4" y="8" width="2" height="2" fill="#f8f8f8"/>
    <rect x="4" y="10" width="2" height="2" fill="#f8f8f8"/>
    <rect x="6" y="10" width="2" height="2" fill="#1a1a1a"/>
    <rect x="6" y="12" width="2" height="2" fill="#f8f8f8"/>
    <rect x="6" y="14" width="2" height="2" fill="#f8f8f8"/>
    <rect x="8" y="14" width="2" height="2" fill="#1a1a1a"/>
    <rect x="8" y="16" width="2" height="4" fill="#f8f8f8"/>
    
    <!-- Right paw raised up -->
    <rect x="42" y="8" width="2" height="2" fill="#f8f8f8"/>
    <rect x="42" y="10" width="2" height="2" fill="#f8f8f8"/>
    <rect x="40" y="10" width="2" height="2" fill="#1a1a1a"/>
    <rect x="40" y="12" width="2" height="2" fill="#f8f8f8"/>
    <rect x="40" y="14" width="2" height="2" fill="#f8f8f8"/>
    <rect x="38" y="14" width="2" height="2" fill="#1a1a1a"/>
    <rect x="38" y="16" width="2" height="4" fill="#f8f8f8"/>
    
    <!-- Left ear -->
    <rect x="14" y="0" width="2" height="2" fill="#1a1a1a"/>
    <rect x="16" y="0" width="2" height="2" fill="#f8f8f8"/>
    <rect x="16" y="2" width="2" height="2" fill="#f8f8f8"/>
    <rect x="14" y="2" width="2" height="2" fill="#1a1a1a"/>
    
    <!-- Right ear -->
    <rect x="32" y="0" width="2" height="2" fill="#1a1a1a"/>
    <rect x="30" y="0" width="2" height="2" fill="#f8f8f8"/>
    <rect x="30" y="2" width="2" height="2" fill="#f8f8f8"/>
    <rect x="32" y="2" width="2" height="2" fill="#1a1a1a"/>
    
    <!-- Top of head -->
    <rect x="18" y="2" width="12" height="2" fill="#1a1a1a"/>
    <rect x="16" y="4" width="2" height="2" fill="#1a1a1a"/>
    <rect x="18" y="4" width="12" height="2" fill="#f8f8f8"/>
    <rect x="30" y="4" width="2" height="2" fill="#1a1a1a"/>
    
    <!-- Upper head -->
    <rect x="14" y="6" width="2" height="2" fill="#1a1a1a"/>
    <rect x="16" y="6" width="16" height="2" fill="#f8f8f8"/>
    <rect x="32" y="6" width="2" height="2" fill="#1a1a1a"/>
    
    <!-- Eyes level -->
    <rect x="12" y="8" width="2" height="2" fill="#1a1a1a"/>
    <rect x="14" y="8" width="6" height="2" fill="#f8f8f8"/>
    <rect x="20" y="9" width="2" height="1" fill="#1a1a1a"/>
    <rect x="22" y="8" width="4" height="2" fill="#f8f8f8"/>
    <rect x="26" y="9" width="2" height="1" fill="#1a1a1a"/>
    <rect x="28" y="8" width="6" height="2" fill="#f8f8f8"/>
    <rect x="34" y="8" width="2" height="2" fill="#1a1a1a"/>
    
    <!-- Cheeks and snout -->
    <rect x="12" y="10" width="2" height="2" fill="#1a1a1a"/>
    <rect x="14" y="10" width="4" height="2" fill="#f8f8f8"/>
    <rect x="18" y="10" width="12" height="2" fill="#f8f8f8"/>
    <rect x="30" y="10" width="4" height="2" fill="#f8f8f8"/>
    <rect x="34" y="10" width="2" height="2" fill="#1a1a1a"/>
    
    <!-- Nose -->
    <rect x="22" y="10" width="4" height="2" fill="#1a1a1a"/>
    
    <!-- Whiskers left -->
    <rect x="8" y="10" width="4" height="1" fill="#1a1a1a"/>
    <rect x="8" y="12" width="4" height="1" fill="#1a1a1a"/>
    <rect x="10" y="14" width="2" height="1" fill="#1a1a1a"/>
    
    <!-- Whiskers right -->
    <rect x="36" y="10" width="4" height="1" fill="#1a1a1a"/>
    <rect x="36" y="12" width="4" height="1" fill="#1a1a1a"/>
    <rect x="36" y="14" width="2" height="1" fill="#1a1a1a"/>
    
    <!-- Lower face / open mouth -->
    <rect x="14" y="12" width="2" height="2" fill="#1a1a1a"/>
    <rect x="16" y="12" width="4" height="2" fill="#f8f8f8"/>
    <rect x="20" y="12" width="8" height="4" fill="#1a1a1a"/>
    <rect x="28" y="12" width="4" height="2" fill="#f8f8f8"/>
    <rect x="32" y="12" width="2" height="2" fill="#1a1a1a"/>
    
    <!-- Inside mouth - tongue -->
    <rect x="22" y="14" width="4" height="2" fill="#ff6b6b"/>
    
    <!-- Chin -->
    <rect x="16" y="14" width="4" height="2" fill="#1a1a1a"/>
    <rect x="28" y="14" width="4" height="2" fill="#1a1a1a"/>
    <rect x="18" y="16" width="12" height="2" fill="#1a1a1a"/>
    
    <!-- Neck/collar -->
    <rect x="14" y="18" width="2" height="2" fill="#1a1a1a"/>
    <rect x="16" y="18" width="4" height="2" fill="#f8f8f8"/>
    <rect x="20" y="18" width="8" height="2" fill="#e8e8e8"/>
    <rect x="28" y="18" width="4" height="2" fill="#f8f8f8"/>
    <rect x="32" y="18" width="2" height="2" fill="#1a1a1a"/>
    
    <!-- Body -->
    <rect x="12" y="20" width="2" height="2" fill="#1a1a1a"/>
    <rect x="14" y="20" width="6" height="2" fill="#f8f8f8"/>
    <rect x="20" y="20" width="8" height="2" fill="#e8e8e8"/>
    <rect x="28" y="20" width="6" height="2" fill="#f8f8f8"/>
    <rect x="34" y="20" width="2" height="2" fill="#1a1a1a"/>
    
    <!-- Arms -->
    <rect x="10" y="20" width="2" height="2" fill="#f8f8f8"/>
    <rect x="36" y="20" width="2" height="2" fill="#f8f8f8"/>
    
    <!-- Lower shirt -->
    <rect x="14" y="22" width="2" height="2" fill="#1a1a1a"/>
    <rect x="16" y="22" width="6" height="2" fill="#f8f8f8"/>
    <rect x="22" y="22" width="4" height="2" fill="#e8e8e8"/>
    <rect x="26" y="22" width="6" height="2" fill="#f8f8f8"/>
    <rect x="32" y="22" width="2" height="2" fill="#1a1a1a"/>
    
    <!-- Bottom -->
    <rect x="16" y="24" width="2" height="2" fill="#1a1a1a"/>
    <rect x="18" y="24" width="12" height="2" fill="#f8f8f8"/>
    <rect x="30" y="24" width="2" height="2" fill="#1a1a1a"/>
  </g>
  
  <!-- Call to action -->
  <text x="600" y="560" text-anchor="middle" class="pixel-font" font-size="20" fill="#00C895">TEST YOUR SOLACE KNOWLEDGE!</text>
  
  <!-- Game controller emoji representation -->
  <g transform="translate(1000, 380) scale(3)" fill="#bf5af2">
    <rect x="8" y="4" width="16" height="12" rx="2"/>
    <rect x="6" y="6" width="4" height="8" rx="1"/>
    <rect x="22" y="6" width="4" height="8" rx="1"/>
    <circle cx="12" cy="10" r="1.5" fill="#00f5ff"/>
    <circle cx="20" cy="10" r="1.5" fill="#ff2d95"/>
    <rect x="14" y="8" width="4" height="4" fill="#ffd93d"/>
  </g>
</svg>
